<svg width="24" height="23" viewBox="0 0 24 23" fill="none" xmlns="http://www.w3.org/2000/svg">
<path d="M18 7.46666C18 5.98145 17.3679 4.55707 16.2426 3.50687C15.1174 2.45666 13.5913 1.86666 12 1.86666C10.4087 1.86666 8.88258 2.45666 7.75736 3.50687C6.63214 4.55707 6 5.98145 6 7.46666C6 14 3 15.8667 3 15.8667H21C21 15.8667 18 14 18 7.46666Z" stroke="#181725" stroke-width="2" stroke-linecap="round" stroke-linejoin="round"/>
<path d="M13.73 19.6C13.5542 19.8829 13.3018 20.1177 12.9982 20.2809C12.6946 20.4441 12.3504 20.53 12 20.53C11.6496 20.53 11.3054 20.4441 11.0018 20.2809C10.6982 20.1177 10.4458 19.8829 10.27 19.6" stroke="#181725" stroke-width="2" stroke-linecap="round" stroke-linejoin="round"/>
</svg>
