<svg width="159" height="78" viewBox="0 0 159 78" fill="none" xmlns="http://www.w3.org/2000/svg">
<path fill-rule="evenodd" clip-rule="evenodd" d="M159.002 74.8836L0.000111312 75.5022L0.00634766 77.105L159.008 76.4863L159.002 74.8836Z" fill="#787885"/>
<path d="M30.9978 61H48.9978" stroke="#787885" stroke-width="2"/>
<path d="M27.9978 36L51.9978 51" stroke="#787885" stroke-width="2"/>
<path d="M70.6266 72.3333C72.4446 72.3333 73.9183 70.8409 73.9183 69C73.9183 67.159 72.4446 65.6666 70.6266 65.6666C68.8087 65.6666 67.335 67.159 67.335 69C67.335 70.8409 68.8087 72.3333 70.6266 72.3333Z" stroke="#787885" stroke-width="3" stroke-linecap="round" stroke-linejoin="round"/>
<path d="M106.835 72.3333C108.653 72.3333 110.127 70.8409 110.127 69C110.127 67.159 108.653 65.6666 106.835 65.6666C105.017 65.6666 103.543 67.159 103.543 69C103.543 70.8409 105.017 72.3333 106.835 72.3333Z" stroke="#787885" stroke-width="3" stroke-linecap="round" stroke-linejoin="round"/>
<path d="M67.5408 6.5L68.5776 18.375H84.822V6.5H67.5408Z" fill="#C4C4C4" stroke="#181725"/>
<path d="M79.2673 0.875L80.1931 19.625L91.3025 18.375L90.3767 0.875H79.2673Z" fill="#C4C4C4" stroke="black"/>
<path d="M114.326 19H79.5854C78.3351 19 77.3913 20.1344 77.6188 21.3639L83.008 50.4889C83.1834 51.437 84.0104 52.125 84.9746 52.125H109.535C110.514 52.125 111.35 51.4159 111.509 50.4496L116.299 21.3246C116.499 20.1068 115.56 19 114.326 19Z" fill="#37B76C"/>
<path d="M44.2935 2.33337H57.4601L66.2818 46.9667C66.5828 48.5014 67.4072 49.8799 68.6108 50.861C69.8144 51.8422 71.3203 52.3633 72.8651 52.3334H104.86C106.405 52.3633 107.911 51.8422 109.114 50.861C110.318 49.8799 111.142 48.5014 111.443 46.9667L116.71 19H60.7518" stroke="#787885" stroke-width="3" stroke-linecap="round" stroke-linejoin="round"/>
<path d="M53.3455 8.375L61.0603 49.9375M72.1697 56.8125H107.349" stroke="#787885" stroke-width="3"/>
</svg>
