<svg width="24" height="23" viewBox="0 0 24 23" fill="none" xmlns="http://www.w3.org/2000/svg">
<path d="M20.84 4.30268C20.3292 3.82575 19.7228 3.44742 19.0554 3.18929C18.3879 2.93117 17.6725 2.79831 16.95 2.79831C16.2275 2.79831 15.5121 2.93117 14.8446 3.18929C14.1772 3.44742 13.5708 3.82575 13.06 4.30268L12 5.29201L10.94 4.30268C9.9083 3.33977 8.50903 2.79881 7.05 2.79881C5.59096 2.79881 4.19169 3.33977 3.16 4.30268C2.1283 5.26559 1.54871 6.57158 1.54871 7.93335C1.54871 9.29511 2.1283 10.6011 3.16 11.564L4.22 12.5533L12 19.8147L19.78 12.5533L20.84 11.564C21.351 11.0873 21.7563 10.5213 22.0329 9.89835C22.3095 9.27538 22.4518 8.60767 22.4518 7.93335C22.4518 7.25902 22.3095 6.59131 22.0329 5.96835C21.7563 5.34539 21.351 4.77939 20.84 4.30268Z" stroke="#181725" stroke-width="2" stroke-linecap="round" stroke-linejoin="round"/>
</svg>
