<svg width="15" height="15" viewBox="0 0 15 15" fill="none" xmlns="http://www.w3.org/2000/svg">
<path d="M7.35188 0C5.89781 0 4.4764 0.43118 3.2674 1.23901C2.05839 2.04685 1.11608 3.19505 0.559631 4.53843C0.00318545 5.88181 -0.142406 7.36003 0.141268 8.78615C0.424941 10.2123 1.12514 11.5223 2.15332 12.5504C3.1815 13.5786 4.49147 14.2788 5.9176 14.5625C7.34372 14.8462 8.82194 14.7006 10.1653 14.1441C11.5087 13.5877 12.6569 12.6454 13.4647 11.4364C14.2726 10.2273 14.7038 8.80594 14.7038 7.35187C14.7038 6.38641 14.5136 5.4304 14.1441 4.53843C13.7747 3.64646 13.2331 2.836 12.5504 2.15331C11.8678 1.47063 11.0573 0.929094 10.1653 0.559628C9.27335 0.190162 8.31734 0 7.35188 0ZM7.35188 13.2334C6.18863 13.2334 5.0515 12.8884 4.08429 12.2422C3.11708 11.5959 2.36324 10.6773 1.91808 9.60263C1.47292 8.52792 1.35645 7.34535 1.58339 6.20445C1.81033 5.06355 2.37049 4.01557 3.19303 3.19303C4.01557 2.37048 5.06356 1.81033 6.20445 1.58339C7.34535 1.35645 8.52793 1.47292 9.60263 1.91808C10.6773 2.36323 11.5959 3.11708 12.2422 4.08429C12.8884 5.0515 13.2334 6.18862 13.2334 7.35187C13.2334 8.91175 12.6137 10.4077 11.5107 11.5107C10.4077 12.6137 8.91175 13.2334 7.35188 13.2334Z" fill="#787885"/>
<path d="M7.51217 2.94078C6.82972 2.94078 6.17523 3.21188 5.69267 3.69444C5.21011 4.177 4.93901 4.8315 4.93901 5.51394C4.93901 5.70892 5.01647 5.89592 5.15434 6.0338C5.29222 6.17167 5.47921 6.24913 5.6742 6.24913C5.86918 6.24913 6.05618 6.17167 6.19405 6.0338C6.33193 5.89592 6.40939 5.70892 6.40939 5.51394C6.40939 5.29583 6.47406 5.08262 6.59524 4.90127C6.71641 4.71992 6.88864 4.57857 7.09015 4.4951C7.29166 4.41164 7.51339 4.3898 7.72731 4.43235C7.94123 4.4749 8.13772 4.57993 8.29195 4.73416C8.44618 4.88838 8.55121 5.08488 8.59376 5.2988C8.63631 5.51272 8.61447 5.73445 8.531 5.93596C8.44754 6.13746 8.30619 6.30969 8.12484 6.43087C7.94349 6.55204 7.73028 6.61672 7.51217 6.61672C7.31718 6.61672 7.13019 6.69418 6.99231 6.83205C6.85444 6.96993 6.77698 7.15693 6.77698 7.35191V8.82228C6.77698 9.01727 6.85444 9.20427 6.99231 9.34214C7.13019 9.48001 7.31718 9.55747 7.51217 9.55747C7.70715 9.55747 7.89415 9.48001 8.03202 9.34214C8.1699 9.20427 8.24735 9.01727 8.24735 8.82228V7.96947C8.84146 7.79597 9.35283 7.41356 9.68721 6.89274C10.0216 6.37192 10.1564 5.74778 10.0669 5.13537C9.97737 4.52295 9.66949 3.96354 9.2 3.56025C8.73052 3.15695 8.13108 2.93694 7.51217 2.94078Z" fill="#787885"/>
<path d="M7.51194 11.763C7.91797 11.763 8.24712 11.4339 8.24712 11.0279C8.24712 10.6218 7.91797 10.2927 7.51194 10.2927C7.1059 10.2927 6.77675 10.6218 6.77675 11.0279C6.77675 11.4339 7.1059 11.763 7.51194 11.763Z" fill="#787885"/>
</svg>
