<svg width="18" height="20" viewBox="0 0 18 20" fill="none" xmlns="http://www.w3.org/2000/svg">
<path d="M16.5 14.1V16.6C16.5009 16.8321 16.4581 17.0618 16.3744 17.2745C16.2907 17.4871 16.168 17.678 16.0141 17.8349C15.8602 17.9918 15.6784 18.1113 15.4806 18.1856C15.2827 18.26 15.073 18.2876 14.865 18.2667C12.5571 17.9881 10.3403 17.1118 8.39251 15.7084C6.58038 14.4289 5.04401 12.7219 3.89251 10.7084C2.62499 8.53438 1.83619 6.0592 1.59001 3.48337C1.57127 3.25293 1.59592 3.02067 1.66239 2.80139C1.72886 2.58211 1.83569 2.38061 1.97609 2.20972C2.11648 2.03883 2.28736 1.9023 2.47785 1.80881C2.66834 1.71532 2.87427 1.66692 3.08251 1.66671H5.33251C5.69649 1.66273 6.04935 1.80594 6.32533 2.06965C6.60131 2.33336 6.78157 2.69958 6.83251 3.10004C6.92748 3.9001 7.1036 4.68565 7.35751 5.44171C7.45842 5.73998 7.48026 6.06414 7.42044 6.37577C7.36062 6.68741 7.22166 6.97347 7.02001 7.20004L6.06751 8.25837C7.13518 10.3447 8.68985 12.0721 10.5675 13.2584L11.52 12.2C11.7239 11.976 11.9814 11.8216 12.2619 11.7551C12.5423 11.6887 12.8341 11.7129 13.1025 11.825C13.783 12.1072 14.49 12.3029 15.21 12.4084C15.5743 12.4655 15.9071 12.6694 16.1449 12.9813C16.3828 13.2932 16.5091 13.6914 16.5 14.1Z" stroke="#37B76C" stroke-width="1.5" stroke-linecap="round" stroke-linejoin="round"/>
</svg>
