<svg width="15" height="12" viewBox="0 0 15 12" fill="none" xmlns="http://www.w3.org/2000/svg">
<path d="M4.96309 3.81982V4.23351C4.96309 4.45731 4.86194 4.66755 4.68661 4.81675C4.50454 4.97273 4.26851 5.06089 4.01901 5.06089C3.7695 5.06089 3.52673 4.97273 3.3514 4.81675C3.17607 4.66755 3.07492 4.45731 3.07492 4.23351V3.81982C3.07492 3.6028 3.17607 3.39256 3.3514 3.23658C3.52673 3.0806 3.7695 2.99243 4.01901 2.99243C4.26851 2.99243 4.50454 3.0806 4.68661 3.23658C4.86194 3.39256 4.96309 3.6028 4.96309 3.81982Z" fill="#787885"/>
<path d="M5.67112 6.26121V6.6003C5.67112 6.76306 5.5902 6.92583 5.46207 7.04112C5.3272 7.15641 5.14513 7.22423 4.96306 7.22423H3.07489C2.88607 7.22423 2.70399 7.15641 2.57587 7.04112C2.441 6.92583 2.36682 6.76306 2.36682 6.6003V6.24086C2.36682 6.01028 2.44774 5.7797 2.5961 5.58981C2.74446 5.39991 2.9535 5.25071 3.19627 5.16255C3.22999 5.15577 3.25696 5.14899 3.29068 5.14899C3.32439 5.14899 3.35137 5.15577 3.38509 5.16255H4.59217C4.60565 5.16255 4.6124 5.16255 4.61914 5.16933C4.61914 5.16255 4.62588 5.16255 4.62588 5.16255C4.73378 5.15577 4.80121 5.16255 4.80796 5.16255C5.06421 5.25071 5.28 5.39991 5.4351 5.59659C5.58346 5.79326 5.67112 6.02384 5.67112 6.26121Z" fill="#787885"/>
<path d="M1.47037 1.47707H1.37037V1.57707V9.46241V9.56241H1.47037H13.2334H13.3334V9.46241V1.57707V1.47707H13.2334H1.47037ZM1.47037 0.1H13.2334C13.5945 0.1 13.9423 0.253789 14.1999 0.530106C14.4578 0.806659 14.6037 1.18315 14.6037 1.57707V9.46241C14.6037 9.85632 14.4578 10.2328 14.1999 10.5094C13.9423 10.7857 13.5945 10.9395 13.2334 10.9395H1.47037C1.10928 10.9395 0.761427 10.7857 0.503804 10.5094C0.245961 10.2328 0.1 9.85632 0.1 9.46241V1.57707C0.1 1.18315 0.245961 0.806659 0.503804 0.530106C0.761427 0.253789 1.10928 0.1 1.47037 0.1ZM8.08706 3.25414H11.763C11.9291 3.25414 12.09 3.32485 12.2097 3.45329C12.3297 3.58196 12.3982 3.75789 12.3982 3.94267C12.3982 4.12745 12.3297 4.30338 12.2097 4.43205C12.09 4.56049 11.9291 4.6312 11.763 4.6312H8.08706C7.92095 4.6312 7.7601 4.56049 7.64035 4.43205C7.52038 4.30338 7.45187 4.12745 7.45187 3.94267C7.45187 3.75789 7.52038 3.58196 7.64035 3.45328C7.7601 3.32485 7.92095 3.25414 8.08706 3.25414ZM8.08706 5.61974H11.763C11.9291 5.61974 12.09 5.69045 12.2097 5.81889C12.3297 5.94756 12.3982 6.12349 12.3982 6.30827C12.3982 6.49305 12.3297 6.66898 12.2097 6.79766C12.09 6.92609 11.9291 6.99681 11.763 6.99681H8.08706C7.92095 6.99681 7.7601 6.92609 7.64035 6.79766C7.52038 6.66898 7.45187 6.49305 7.45187 6.30827C7.45187 6.12349 7.52038 5.94756 7.64035 5.81889C7.7601 5.69045 7.92095 5.61974 8.08706 5.61974Z" fill="#787885" stroke="white" stroke-width="0.2"/>
</svg>
