<svg width="18" height="18" viewBox="0 0 18 18" fill="none" xmlns="http://www.w3.org/2000/svg">
<path d="M13.4048 3.50457C13.6302 3.28807 13.6301 2.93707 13.4048 2.7206L11.8052 1.18417C11.5798 0.967673 11.2144 0.967702 10.989 1.18417L1.19173 10.5948C0.966369 10.8113 0.966339 11.1623 1.19173 11.3788L2.79129 12.9152C3.01668 13.1317 3.3821 13.1317 3.60747 12.9152C4.04384 12.4961 4.75423 12.4961 5.19062 12.9152C5.62702 13.3344 5.62702 14.0167 5.19062 14.4359C4.96526 14.6524 4.96523 15.0034 5.19062 15.2199L6.79018 16.7563C7.01557 16.9728 7.38099 16.9728 7.60636 16.7563L17.4037 7.34565C17.629 7.12915 17.629 6.77815 17.4037 6.56168L15.8041 5.02525C15.5787 4.80875 15.2133 4.80878 14.9879 5.02525C14.5515 5.4444 13.8412 5.44442 13.4048 5.02525C12.9684 4.60608 12.9684 3.92374 13.4048 3.50457ZM12.5886 5.80924C13.3344 6.5256 14.473 6.63916 15.3435 6.15079L16.1794 6.95366L10.0975 12.7956L9.3059 12.0352C9.08051 11.8187 8.71508 11.8187 8.48972 12.0352C8.26435 12.2517 8.26435 12.6027 8.48972 12.8192L9.2813 13.5795L7.19827 15.5804L6.36241 14.7775C6.87082 13.9413 6.7526 12.8476 6.00681 12.1313C5.26102 11.4149 4.12241 11.3013 3.25186 11.7897L2.41601 10.9868L4.49902 8.98601L5.29059 9.74635C5.51599 9.96285 5.88141 9.96282 6.10678 9.74635C6.33215 9.52987 6.33215 9.17885 6.10678 8.96238L5.3152 8.20204L11.3971 2.36015L12.233 3.16302C11.7245 3.99923 11.8428 5.09288 12.5886 5.80924Z" fill="#787885" stroke="#787885" stroke-width="0.3"/>
<path d="M6.49011 10.1148C6.26476 10.3312 6.26479 10.6821 6.49011 10.8986L7.28965 11.6665C7.515 11.883 7.88034 11.883 8.10566 11.6665C8.33098 11.4501 8.33098 11.0992 8.10566 10.8827L7.30612 10.1148C7.30612 10.1148 7.30611 10.1148 7.30611 10.1148C7.0808 9.89829 6.71543 9.89832 6.49011 10.1148Z" fill="#787885" stroke="#787885" stroke-width="0.3"/>
</svg>
