<svg width="18" height="18" viewBox="0 0 18 18" fill="none" xmlns="http://www.w3.org/2000/svg">
<path fill-rule="evenodd" clip-rule="evenodd" d="M3.75 3C3.33579 3 3 3.33579 3 3.75V14.25C3 14.6642 3.33579 15 3.75 15H14.25C14.6642 15 15 14.6642 15 14.25V3.75C15 3.33579 14.6642 3 14.25 3H3.75ZM1.5 3.75C1.5 2.50736 2.50736 1.5 3.75 1.5H14.25C15.4926 1.5 16.5 2.50736 16.5 3.75V14.25C16.5 15.4926 15.4926 16.5 14.25 16.5H3.75C2.50736 16.5 1.5 15.4926 1.5 14.25V3.75Z" fill="black"/>
<path fill-rule="evenodd" clip-rule="evenodd" d="M9 5.25C9.41421 5.25 9.75 5.58579 9.75 6V12C9.75 12.4142 9.41421 12.75 9 12.75C8.58579 12.75 8.25 12.4142 8.25 12V6C8.25 5.58579 8.58579 5.25 9 5.25Z" fill="black"/>
<path fill-rule="evenodd" clip-rule="evenodd" d="M5.25 9C5.25 8.58579 5.58579 8.25 6 8.25H12C12.4142 8.25 12.75 8.58579 12.75 9C12.75 9.41421 12.4142 9.75 12 9.75H6C5.58579 9.75 5.25 9.41421 5.25 9Z" fill="black"/>
</svg>
