<svg width="24" height="23" viewBox="0 0 24 23" fill="none" xmlns="http://www.w3.org/2000/svg">
<path d="M8 3.83332H5C4.73479 3.83332 4.48043 3.93429 4.2929 4.11401C4.10536 4.29373 4 4.53749 4 4.79166V6.70832C4 6.96249 4.10536 7.20624 4.2929 7.38597C4.48043 7.56569 4.73479 7.66666 5 7.66666H7C7.26522 7.66666 7.51957 7.56569 7.70711 7.38597C7.89465 7.20624 8 6.96249 8 6.70832V3.83332ZM5.01 9.58332V19.1331H7V14.375C7 13.8667 7.21072 13.3791 7.58579 13.0197C7.96086 12.6603 8.46957 12.4583 9 12.4583H11C11.5304 12.4583 12.0391 12.6603 12.4142 13.0197C12.7893 13.3791 13 13.8667 13 14.375V19.1331H19.013V9.58332H17C16.232 9.58332 15.53 9.30636 15 8.85116C14.4505 9.3235 13.7381 9.5843 13 9.58332H11C10.232 9.58332 9.53 9.30636 9 8.85116C8.45054 9.3235 7.73814 9.5843 7 9.58332H5.01ZM3.01 8.86074C2.69197 8.59115 2.43744 8.2598 2.2633 7.88869C2.08916 7.51759 1.99941 7.11522 2 6.70832V4.79166C2 4.02916 2.31607 3.29789 2.87868 2.75872C3.44129 2.21956 4.20435 1.91666 5 1.91666L19 1.91666C19.7957 1.91666 20.5587 2.21956 21.1213 2.75872C21.6839 3.29789 22 4.02916 22 4.79166V6.70832C22 7.55357 21.62 8.31449 21.013 8.84061V19.1331C21.013 19.6414 20.8023 20.129 20.4272 20.4884C20.0521 20.8478 19.5434 21.0498 19.013 21.0498H11.373C11.25 21.0721 11.1252 21.0833 11 21.0833H9C8.87485 21.0833 8.74998 21.0721 8.627 21.0498H5.011C4.48057 21.0498 3.97186 20.8478 3.59679 20.4884C3.22172 20.129 3.011 19.6414 3.011 19.1331V8.85978L3.01 8.86074ZM11 19.1341V14.375H9V19.1331L11 19.1341ZM14 3.83332H10V6.70832C10 6.96249 10.1054 7.20624 10.2929 7.38597C10.4804 7.56569 10.7348 7.66666 11 7.66666H13C13.2652 7.66666 13.5196 7.56569 13.7071 7.38597C13.8946 7.20624 14 6.96249 14 6.70832V3.83332ZM16 3.83332V6.70832C16 6.96249 16.1054 7.20624 16.2929 7.38597C16.4804 7.56569 16.7348 7.66666 17 7.66666H19C19.2652 7.66666 19.5196 7.56569 19.7071 7.38597C19.8946 7.20624 20 6.96249 20 6.70832V4.79166C20 4.53749 19.8946 4.29373 19.7071 4.11401C19.5196 3.93429 19.2652 3.83332 19 3.83332H16ZM16 12.4583H17C17.2652 12.4583 17.5196 12.5593 17.7071 12.739C17.8946 12.9187 18 13.1625 18 13.4167V16.2917C18 16.5458 17.8946 16.7896 17.7071 16.9693C17.5196 17.149 17.2652 17.25 17 17.25H16C15.7348 17.25 15.4804 17.149 15.2929 16.9693C15.1054 16.7896 15 16.5458 15 16.2917V13.4167C15 13.1625 15.1054 12.9187 15.2929 12.739C15.4804 12.5593 15.7348 12.4583 16 12.4583Z" fill="#181725" stroke="white" stroke-width="0.05"/>
</svg>
