<svg width="13" height="13" viewBox="0 0 13 13" fill="none" xmlns="http://www.w3.org/2000/svg">
<path d="M5.68128 9.94197C6.2408 9.94197 6.79484 9.83176 7.31178 9.61764C7.82871 9.40352 8.2984 9.08968 8.69404 8.69404C9.08968 8.2984 9.40353 7.82871 9.61765 7.31178C9.83177 6.79484 9.94197 6.2408 9.94197 5.68128C9.94197 5.12176 9.83177 4.56771 9.61765 4.05078C9.40353 3.53385 9.08968 3.06416 8.69404 2.66852C8.2984 2.27287 7.82871 1.95903 7.31178 1.74491C6.79484 1.53079 6.2408 1.42059 5.68128 1.42059C4.55127 1.42059 3.46755 1.86948 2.66852 2.66852C1.86948 3.46755 1.42059 4.55127 1.42059 5.68128C1.42059 6.81129 1.86948 7.89501 2.66852 8.69404C3.46755 9.49308 4.55127 9.94197 5.68128 9.94197ZM10.1692 9.1651L12.7114 11.7073C12.7792 11.7729 12.8332 11.8513 12.8704 11.9379C12.9075 12.0246 12.9271 12.1178 12.9278 12.2121C12.9286 12.3064 12.9105 12.3999 12.8748 12.4871C12.839 12.5743 12.7862 12.6536 12.7195 12.7202C12.6528 12.7868 12.5735 12.8395 12.4862 12.8752C12.3989 12.9108 12.3053 12.9287 12.2111 12.9278C12.1168 12.9269 12.0236 12.9073 11.937 12.87C11.8504 12.8327 11.7721 12.7786 11.7066 12.7107L9.16439 10.1685C8.02286 11.0546 6.58653 11.4724 5.14781 11.3368C3.70909 11.2012 2.37612 10.5224 1.42027 9.43854C0.464415 8.35473 -0.0424735 6.94738 0.00279005 5.50299C0.0480536 4.0586 0.642067 2.68575 1.66391 1.66391C2.68575 0.642067 4.0586 0.0480536 5.50299 0.00279005C6.94738 -0.0424735 8.35473 0.464415 9.43854 1.42027C10.5224 2.37612 11.2012 3.70909 11.3368 5.14781C11.4724 6.58653 11.0546 8.02286 10.1685 9.16439L10.1692 9.1651Z" fill="#181B19" fill-opacity="0.5"/>
</svg>
